<svg width="687" height="682" viewBox="0 0 687 682" fill="none" xmlns="http://www.w3.org/2000/svg">
<path opacity="0.5" d="M491 88L505.797 73.3975C511.639 67.633 521.028 67.633 526.869 73.3975L531.131 77.6025C536.972 83.367 546.361 83.367 552.203 77.6025L567 63" stroke="#4E887A" stroke-width="13" stroke-linecap="round"/>
<path opacity="0.5" d="M24 663L38.7972 648.398C44.6386 642.633 54.0281 642.633 59.8695 648.397L64.1305 652.602C69.9719 658.367 79.3614 658.367 85.2028 652.603L100 638" stroke="#4E887A" stroke-width="13" stroke-linecap="round"/>
<path opacity="0.5" d="M572 100L586.797 85.3975C592.639 79.633 602.028 79.633 607.869 85.3975L612.131 89.6025C617.972 95.367 627.361 95.367 633.203 89.6025L648 75" stroke="#4E887A" stroke-width="13" stroke-linecap="round"/>
<path opacity="0.5" d="M105 675L119.797 660.398C125.639 654.633 135.028 654.633 140.869 660.397L145.131 664.602C150.972 670.367 160.361 670.367 166.203 664.603L181 650" stroke="#4E887A" stroke-width="13" stroke-linecap="round"/>
<circle opacity="0.5" cx="644.5" cy="547.5" r="20.5" fill="#4E887A"/>
<circle opacity="0.5" cx="15.5" cy="15.5" r="15.5" fill="#4E887A"/>
<circle opacity="0.5" cx="637.5" cy="596.5" r="13.5" fill="#4E887A"/>
<circle opacity="0.5" cx="10.5" cy="52.5" r="10.5" fill="#4E887A"/>
<circle opacity="0.5" cx="676" cy="575" r="11" fill="#4E887A"/>
<circle opacity="0.5" cx="39.5" cy="36.5" r="8.5" fill="#4E887A"/>
</svg>
